<svg id="dribbble" xmlns="http://www.w3.org/2000/svg" width="32" height="32" viewBox="0 0 32 32">
  <path id="Path_59685" data-name="Path 59685" d="M180.141,7.187a6.813,6.813,0,0,0,1.75-3.406,15.688,15.688,0,0,0-15.9-2.714,40.856,40.856,0,0,1,7.379,10.278A16.731,16.731,0,0,0,180.141,7.187Zm0,0" transform="translate(-155.614)" fill="#fff"/>
  <path id="Path_59686" data-name="Path 59686" d="M304.784,87.724a18.383,18.383,0,0,1-7.331,4.609c.38.833.729,1.682,1.057,2.543a23.076,23.076,0,0,1,4.852-.529,22.8,22.8,0,0,1,7.484,1.257c0-.107.016-.211.016-.319a15.857,15.857,0,0,0-4.173-10.714A9.3,9.3,0,0,1,304.784,87.724Zm0,0" transform="translate(-278.862 -79.285)" fill="#fff"/>
  <path id="Path_59687" data-name="Path 59687" d="M5.848,41.039a37.134,37.134,0,0,0,6.322.555,34.06,34.06,0,0,0,9.261-1.269A38.8,38.8,0,0,0,14.021,30.3,16.272,16.272,0,0,0,5.848,41.039Zm0,0" transform="translate(-5.482 -28.407)" fill="#fff"/>
  <path id="Path_59688" data-name="Path 59688" d="M335.99,272.312A20.828,20.828,0,0,0,328.667,271a21.328,21.328,0,0,0-4.222.427,46.367,46.367,0,0,1,2.325,13.216A16.059,16.059,0,0,0,335.99,272.312Zm0,0" transform="translate(-304.167 -254.063)" fill="#fff"/>
  <path id="Path_59689" data-name="Path 59689" d="M0,220.576a16.151,16.151,0,0,0,5.9,12.333,13.553,13.553,0,0,1,3.321-6.98,18.835,18.835,0,0,1,8.6-5.3c-.318-.819-.665-1.623-1.031-2.415a35.741,35.741,0,0,1-10.106,1.424,39.028,39.028,0,0,1-6.611-.579c-.047.5-.077,1-.077,1.516Zm0,0" transform="translate(0 -204.576)" fill="#fff"/>
  <path id="Path_59690" data-name="Path 59690" d="M125.425,289.857a11.326,11.326,0,0,0-2.972,6.976,15.834,15.834,0,0,0,13.077,1.724,44.523,44.523,0,0,0-2.28-13.482A16.965,16.965,0,0,0,125.425,289.857Zm0,0" transform="translate(-114.8 -267.257)" fill="#fff"/>
</svg>
