<svg xmlns="http://www.w3.org/2000/svg" width="34.629" height="25.971" viewBox="0 0 34.629 25.971">
  <g id="envelope" transform="translate(0 -64)">
    <g id="Group_4820" data-name="Group 4820" transform="translate(0 64)">
      <g id="Group_4819" data-name="Group 4819">
        <path id="Path_59693" data-name="Path 59693" d="M7.169,66.107c4.753,4.025,13.092,11.106,15.543,13.314a1.448,1.448,0,0,0,2.095,0c2.453-2.21,10.793-9.292,15.545-13.317a.721.721,0,0,0,.1-1A2.865,2.865,0,0,0,38.189,64H9.332a2.865,2.865,0,0,0-2.264,1.112A.721.721,0,0,0,7.169,66.107Z" transform="translate(-6.446 -64)" fill="#fff"/>
        <path id="Path_59694" data-name="Path 59694" d="M34.21,126.479a.718.718,0,0,0-.769.1c-5.271,4.468-12,10.2-14.114,12.1a2.921,2.921,0,0,1-4.027,0c-2.256-2.033-9.81-8.454-14.112-12.1a.721.721,0,0,0-1.188.55v18.143a2.889,2.889,0,0,0,2.886,2.886H31.743a2.889,2.889,0,0,0,2.886-2.886V127.133A.721.721,0,0,0,34.21,126.479Z" transform="translate(0 -122.19)" fill="#fff"/>
      </g>
    </g>
  </g>
</svg>
