<svg id="linkedin" xmlns="http://www.w3.org/2000/svg" width="33.58" height="33" viewBox="0 0 33.58 33">
  <path id="Path_1582" data-name="Path 1582" d="M4.054,5.424a4.053,4.053,0,1,1,0,8.105,4.053,4.053,0,1,1,0-8.105" transform="translate(0 -5.424)" fill="#fff"/>
  <path id="Path_1583" data-name="Path 1583" d="M13.754,186.9H9.123a1.161,1.161,0,0,1-1.158-1.158V165.479a1.113,1.113,0,0,1,1.1-1.158h4.689a1.161,1.161,0,0,1,1.158,1.158V185.8a1.151,1.151,0,0,1-1.158,1.1" transform="translate(-7.443 -153.9)" fill="#fff"/>
  <path id="Path_1584" data-name="Path 1584" d="M197.687,163.135a7.418,7.418,0,0,0-7.468-7.642H189a7.05,7.05,0,0,0-5.789,2.895l-.579.579v-2.316a.744.744,0,0,0-.579-.579h-5.789a.616.616,0,0,0-.579.521v21.595c0,.232.347.463.579.463h6.368c.232,0,.579-.232.579-.463V165.682a3.85,3.85,0,0,1,6.6-2.837,3.81,3.81,0,0,1,.984,2.779v12.447a.744.744,0,0,0,.579.579h5.789a.744.744,0,0,0,.579-.579V163.135Z" transform="translate(-164.165 -145.651)" fill="#fff"/>
</svg>
