<svg width="187" height="187" viewBox="0 0 187 187" fill="none" xmlns="http://www.w3.org/2000/svg">
<g id="gear-contact">
<g id="gear-hover">
<path id="Subtract" fill-rule="evenodd" clip-rule="evenodd" d="M93.7698 55.2517C114.425 55.2519 131.169 71.9967 131.169 92.6521C131.169 113.307 114.425 130.051 93.7698 130.052C73.1146 130.051 56.3696 113.307 56.3694 92.6521C56.3694 71.9967 73.1145 55.2519 93.7698 55.2517ZM93.7698 68.3455C80.3459 68.3457 69.4631 79.2281 69.4631 92.6521C69.4632 106.076 80.3459 116.958 93.7698 116.959C107.194 116.959 118.076 106.076 118.076 92.6521C118.076 79.2281 107.194 68.3455 93.7698 68.3455Z" fill="url(#paint0_linear_58_126)"/>
<g id="Subtract_2" filter="url(#filter0_d_58_126)">
<path fill-rule="evenodd" clip-rule="evenodd" d="M92.0698 37.4128C122.884 37.413 147.866 62.3731 147.866 93.1638C147.866 123.955 122.885 148.916 92.0698 148.916C61.255 148.916 36.2739 123.955 36.2739 93.1638C36.2741 62.373 61.2551 37.4128 92.0698 37.4128ZM93.1343 56.5388C73.478 56.5389 57.5425 72.4609 57.5425 92.1023C57.5427 111.744 73.4782 127.666 93.1343 127.666C112.79 127.666 128.726 111.743 128.726 92.1023C128.726 72.4609 112.79 56.5389 93.1343 56.5388Z" fill="url(#paint1_linear_58_126)"/>
</g>
<g id="Subtract_3" filter="url(#filter1_d_58_126)">
<path fill-rule="evenodd" clip-rule="evenodd" d="M91.0239 10.0287C92.4815 9.99042 93.9403 9.99042 95.3979 10.0287C96.7156 10.0634 97.7514 11.1336 97.7875 12.4369L98.0307 21.2026C98.0522 21.9752 98.6617 22.6133 99.4477 22.683C102.687 22.9695 105.904 23.4788 109.074 24.2075C109.843 24.3843 110.62 23.9659 110.879 23.2377L113.818 14.976C114.255 13.7479 115.571 13.0513 116.834 13.4252C118.233 13.8392 119.621 14.2898 120.996 14.7768C122.238 15.2169 122.892 16.5543 122.524 17.8051L120.046 26.2153C119.828 26.9567 120.211 27.7517 120.937 28.061C123.93 29.3345 126.831 30.8134 129.621 32.4858C130.297 32.8916 131.167 32.734 131.638 32.1215L136.985 25.1733C137.78 24.1401 139.247 23.8831 140.333 24.6293C141.536 25.4554 142.716 26.3134 143.873 27.2016C144.919 28.0042 145.128 29.4785 144.391 30.5541L139.435 37.7875C138.998 38.4253 139.117 39.3004 139.712 39.8188C142.165 41.9546 144.467 44.2571 146.603 46.7094C147.121 47.3046 147.996 47.4225 148.634 46.9858L155.868 42.0307C156.943 41.2938 158.418 41.5027 159.22 42.5483C160.108 43.7054 160.965 44.8861 161.791 46.0883C162.538 47.1748 162.282 48.6417 161.248 49.4369L154.3 54.7836C153.688 55.2552 153.53 56.1243 153.936 56.8012C155.608 59.5906 157.087 62.4922 158.361 65.4848C158.67 66.2108 159.465 66.5936 160.206 66.3754L168.617 63.8979C169.867 63.5294 171.205 64.1836 171.645 65.4262C172.132 66.8011 172.582 68.1887 172.997 69.5873C173.371 70.8513 172.673 72.1669 171.445 72.6039L163.184 75.5424C162.456 75.8018 162.037 76.5789 162.214 77.3481C162.943 80.5178 163.452 83.7343 163.739 86.9741C163.808 87.76 164.447 88.3694 165.219 88.391L173.985 88.6342C175.288 88.6703 176.357 89.7062 176.392 91.0239C176.43 92.4816 176.43 93.9401 176.392 95.3979C176.357 96.7155 175.288 97.7514 173.985 97.7875L165.219 98.0307C164.447 98.0523 163.808 98.6616 163.739 99.4477C163.452 102.687 162.943 105.904 162.214 109.074C162.038 109.843 162.456 110.62 163.184 110.879L171.445 113.818C172.673 114.255 173.371 115.57 172.997 116.834C172.582 118.233 172.132 119.621 171.645 120.996C171.205 122.238 169.867 122.892 168.617 122.524L160.206 120.046C159.465 119.828 158.67 120.211 158.361 120.937C157.087 123.93 155.608 126.831 153.936 129.621C153.53 130.297 153.688 131.167 154.3 131.638L161.248 136.985C162.282 137.78 162.538 139.247 161.791 140.333C160.965 141.536 160.108 142.716 159.22 143.873C158.418 144.919 156.943 145.128 155.868 144.391L148.634 139.435C147.996 138.998 147.121 139.117 146.603 139.712C144.467 142.165 142.165 144.467 139.712 146.603C139.117 147.121 138.998 147.996 139.435 148.634L144.391 155.868C145.128 156.943 144.919 158.418 143.873 159.22C142.716 160.108 141.536 160.965 140.333 161.791C139.247 162.538 137.78 162.282 136.985 161.248L131.638 154.3C131.167 153.688 130.298 153.53 129.621 153.936C126.831 155.608 123.93 157.087 120.937 158.361C120.211 158.67 119.828 159.465 120.046 160.206L122.524 168.617C122.892 169.867 122.238 171.205 120.996 171.645C119.621 172.132 118.233 172.583 116.834 172.997C115.571 173.37 114.255 172.673 113.818 171.445L110.879 163.184C110.62 162.456 109.843 162.037 109.074 162.214C105.904 162.943 102.687 163.452 99.4477 163.739C98.6617 163.809 98.0521 164.447 98.0307 165.219L97.7875 173.985C97.7514 175.288 96.7155 176.357 95.3979 176.392C93.9403 176.43 92.4815 176.43 91.0239 176.392C89.7064 176.357 88.6704 175.288 88.6342 173.985L88.3911 165.219C88.3696 164.446 87.7602 163.808 86.9741 163.739C83.7344 163.452 80.5177 162.943 77.3481 162.214C76.5789 162.038 75.8016 162.456 75.5424 163.184L72.6039 171.445C72.1669 172.673 70.8512 173.371 69.5873 172.997C68.1888 172.583 66.801 172.132 65.4262 171.645C64.1839 171.205 63.5295 169.867 63.8979 168.617L66.3754 160.206C66.5939 159.465 66.2109 158.67 65.4848 158.361C62.4923 157.087 59.5905 155.608 56.8012 153.936C56.1242 153.53 55.2551 153.688 54.7836 154.3L49.4369 161.248C48.6416 162.282 47.1747 162.538 46.0883 161.791C44.8862 160.965 43.7053 160.108 42.5483 159.22C41.5029 158.418 41.294 156.943 42.0307 155.868L46.9858 148.634C47.4228 147.996 47.3047 147.121 46.7094 146.603C44.2571 144.467 41.9546 142.165 39.8188 139.712C39.3003 139.117 38.4253 138.998 37.7875 139.435L30.5541 144.391C29.4785 145.128 28.0041 144.919 27.2016 143.873C26.3134 142.716 25.4555 141.536 24.6293 140.333C23.8831 139.247 24.1403 137.78 25.1733 136.985L32.1215 131.638C32.7342 131.167 32.8917 130.298 32.4858 129.621C30.8133 126.831 29.3345 123.93 28.061 120.937C27.7518 120.211 26.9569 119.828 26.2153 120.046L17.8051 122.524C16.5545 122.892 15.2169 122.238 14.7768 120.996C14.2898 119.621 13.8393 118.233 13.4252 116.834C13.0511 115.571 13.748 114.255 14.976 113.818L23.2377 110.879C23.966 110.62 24.3843 109.843 24.2075 109.074C23.4788 105.904 22.9695 102.687 22.683 99.4477C22.6134 98.6615 21.9753 98.0521 21.2026 98.0307L12.4369 97.7875C11.1338 97.7512 10.0634 96.7154 10.0287 95.3979C9.99042 93.9402 9.99042 92.4816 10.0287 91.0239C10.0634 89.7063 11.1338 88.6705 12.4369 88.6342L21.2026 88.391C21.9753 88.3696 22.6133 87.7601 22.683 86.9741C22.9695 83.7344 23.4788 80.5177 24.2075 77.3481C24.3843 76.5789 23.966 75.8017 23.2377 75.5424L14.976 72.6039C13.748 72.1667 13.0512 70.851 13.4252 69.5873C13.8393 68.1888 14.2898 66.8011 14.7768 65.4262C15.2169 64.1837 16.5544 63.5296 17.8051 63.8979L26.2153 66.3754C26.9568 66.5939 27.7517 66.2108 28.061 65.4848C29.3345 62.4922 30.8134 59.5906 32.4858 56.8012C32.8917 56.1242 32.7342 55.2552 32.1215 54.7836L25.1733 49.4369C24.1403 48.6418 23.8833 47.1747 24.6293 46.0883C25.4554 44.8861 26.3135 43.7054 27.2016 42.5483C28.0041 41.5027 29.4785 41.294 30.5541 42.0307L37.7875 46.9858C38.4253 47.4227 39.3003 47.3045 39.8188 46.7094C41.9546 44.2571 44.2571 41.9546 46.7094 39.8188C47.3047 39.3003 47.4228 38.4254 46.9858 37.7875L42.0307 30.5541C41.294 29.4786 41.5029 28.0042 42.5483 27.2016C43.7053 26.3135 44.8862 25.4554 46.0883 24.6293C47.1747 23.8831 48.6417 24.1402 49.4369 25.1733L54.7836 32.1215C55.2551 32.7341 56.1243 32.8914 56.8012 32.4858C59.5905 30.8134 62.4923 29.3345 65.4848 28.061C66.2109 27.7518 66.5939 26.9568 66.3754 26.2153L63.8979 17.8051C63.5295 16.5545 64.1839 15.217 65.4262 14.7768C66.801 14.2898 68.1888 13.8392 69.5873 13.4252C70.8512 13.0511 72.1668 13.7478 72.6039 14.976L75.5424 23.2377C75.8016 23.9659 76.579 24.384 77.3481 24.2075C80.5177 23.4788 83.7344 22.9695 86.9741 22.683C87.7601 22.6134 88.3696 21.9752 88.3911 21.2026L88.6342 12.4369C88.6703 11.1337 89.7064 10.0636 91.0239 10.0287ZM93.2114 39.061C63.3052 39.061 39.061 63.3052 39.061 93.2114C39.0612 123.117 63.3053 147.361 93.2114 147.361C123.117 147.361 147.361 123.117 147.361 93.2114C147.361 63.3053 123.117 39.0612 93.2114 39.061Z" fill="url(#paint2_linear_58_126)"/>
</g>
</g>
<g id="gear-base">
<path id="Subtract_4" fill-rule="evenodd" clip-rule="evenodd" d="M93.7703 55.251C114.425 55.2512 131.17 71.9961 131.17 92.6514C131.169 113.307 114.425 130.051 93.7703 130.051C73.1149 130.051 56.3701 113.307 56.3699 92.6514C56.37 71.996 73.1148 55.251 93.7703 55.251ZM93.7703 68.3447C80.3462 68.3447 69.4638 79.2274 69.4636 92.6514C69.4637 106.075 80.3462 116.958 93.7703 116.958C107.194 116.958 118.077 106.075 118.077 92.6514C118.077 79.2274 107.194 68.3448 93.7703 68.3447Z" fill="url(#paint3_linear_58_126)"/>
<g id="Subtract_5" filter="url(#filter2_d_58_126)">
<path fill-rule="evenodd" clip-rule="evenodd" d="M92.0698 37.4131C122.884 37.4131 147.866 62.3733 147.866 93.1641C147.866 123.955 122.885 148.916 92.0698 148.916C61.2551 148.916 36.2739 123.955 36.2739 93.1641C36.2741 62.3733 61.2552 37.4132 92.0698 37.4131ZM93.1343 56.5391C73.478 56.5391 57.5425 72.4611 57.5425 92.1025C57.5426 111.744 73.4781 127.666 93.1343 127.666C112.79 127.666 128.726 111.744 128.726 92.1025C128.726 72.4611 112.79 56.5392 93.1343 56.5391Z" fill="url(#paint4_linear_58_126)"/>
</g>
<g id="Subtract_6" filter="url(#filter3_d_58_126)">
<path fill-rule="evenodd" clip-rule="evenodd" d="M91.0239 10.0287C92.4816 9.99042 93.9402 9.99042 95.3979 10.0287C96.7154 10.0634 97.7512 11.1338 97.7875 12.4369L98.0307 21.2026C98.0521 21.9753 98.6615 22.6134 99.4477 22.683C102.687 22.9695 105.904 23.4788 109.074 24.2075C109.843 24.3843 110.62 23.966 110.879 23.2377L113.818 14.976C114.255 13.748 115.571 13.0511 116.834 13.4252C118.233 13.8393 119.621 14.2898 120.996 14.7768C122.238 15.2169 122.892 16.5544 122.524 17.8051L120.046 26.2153C119.828 26.9569 120.211 27.7518 120.937 28.061C123.93 29.3345 126.831 30.8133 129.621 32.4858C130.298 32.8917 131.167 32.7342 131.638 32.1215L136.985 25.1733C137.78 24.1402 139.247 23.8831 140.333 24.6293C141.536 25.4555 142.716 26.3134 143.873 27.2016C144.919 28.0041 145.128 29.4785 144.391 30.5541L139.435 37.7875C138.998 38.4253 139.117 39.3003 139.712 39.8188C142.165 41.9546 144.467 44.2571 146.603 46.7094C147.121 47.3047 147.996 47.4228 148.634 46.9858L155.868 42.0307C156.943 41.294 158.418 41.5028 159.22 42.5483C160.108 43.7053 160.965 44.8862 161.791 46.0883C162.538 47.1747 162.282 48.6416 161.248 49.4369L154.3 54.7836C153.688 55.2552 153.53 56.1242 153.936 56.8012C155.608 59.5905 157.087 62.4922 158.361 65.4848C158.67 66.2109 159.465 66.5939 160.206 66.3754L168.617 63.8979C169.867 63.5295 171.205 64.1838 171.645 65.4262C172.132 66.801 172.583 68.1888 172.997 69.5873C173.371 70.8513 172.673 72.1669 171.445 72.6039L163.184 75.5424C162.456 75.8016 162.038 76.5789 162.214 77.3481C162.943 80.5177 163.452 83.7344 163.739 86.9741C163.808 87.7602 164.446 88.3696 165.219 88.3911L173.985 88.6342C175.288 88.6704 176.357 89.7063 176.392 91.0239C176.43 92.4815 176.43 93.9402 176.392 95.3979C176.357 96.7156 175.288 97.7514 173.985 97.7875L165.219 98.0307C164.446 98.0521 163.808 98.6617 163.739 99.4477C163.452 102.687 162.943 105.904 162.214 109.074C162.037 109.843 162.456 110.62 163.184 110.879L171.445 113.818C172.673 114.255 173.37 115.571 172.997 116.834C172.583 118.233 172.132 119.621 171.645 120.996C171.205 122.238 169.867 122.892 168.617 122.524L160.206 120.046C159.465 119.828 158.67 120.211 158.361 120.937C157.087 123.93 155.608 126.831 153.936 129.621C153.53 130.298 153.688 131.167 154.3 131.638L161.248 136.985C162.282 137.78 162.538 139.247 161.791 140.333C160.965 141.536 160.108 142.716 159.22 143.873C158.418 144.919 156.943 145.128 155.868 144.391L148.634 139.435C147.996 138.998 147.121 139.117 146.603 139.712C144.467 142.165 142.165 144.467 139.712 146.603C139.117 147.121 138.998 147.996 139.435 148.634L144.391 155.868C145.128 156.943 144.919 158.418 143.873 159.22C142.716 160.108 141.536 160.965 140.333 161.791C139.247 162.538 137.78 162.282 136.985 161.248L131.638 154.3C131.167 153.688 130.297 153.53 129.621 153.936C126.831 155.608 123.93 157.087 120.937 158.361C120.211 158.67 119.828 159.465 120.046 160.206L122.524 168.617C122.892 169.867 122.238 171.205 120.996 171.645C119.621 172.132 118.233 172.582 116.834 172.997C115.57 173.371 114.255 172.673 113.818 171.445L110.879 163.184C110.62 162.456 109.843 162.038 109.074 162.214C105.904 162.943 102.687 163.452 99.4477 163.739C98.6616 163.808 98.0523 164.447 98.0307 165.219L97.7875 173.985C97.7514 175.288 96.7155 176.357 95.3979 176.392C93.9401 176.43 92.4816 176.43 91.0239 176.392C89.7062 176.357 88.6703 175.288 88.6342 173.985L88.391 165.219C88.3695 164.447 87.76 163.808 86.9741 163.739C83.7343 163.452 80.5178 162.943 77.3481 162.214C76.5789 162.037 75.8017 162.456 75.5424 163.184L72.6039 171.445C72.1669 172.673 70.8513 173.371 69.5873 172.997C68.1887 172.582 66.8011 172.132 65.4262 171.645C64.1836 171.205 63.5294 169.867 63.8979 168.617L66.3754 160.206C66.5937 159.465 66.2108 158.67 65.4848 158.361C62.4922 157.087 59.5906 155.608 56.8012 153.936C56.1243 153.53 55.2552 153.688 54.7836 154.3L49.4369 161.248C48.6417 162.282 47.1748 162.538 46.0883 161.791C44.8861 160.965 43.7054 160.108 42.5483 159.22C41.5027 158.418 41.2938 156.943 42.0307 155.868L46.9858 148.634C47.4226 147.996 47.3046 147.121 46.7094 146.603C44.2571 144.467 41.9546 142.165 39.8188 139.712C39.3004 139.117 38.4253 138.998 37.7875 139.435L30.5541 144.391C29.4785 145.128 28.0042 144.919 27.2016 143.873C26.3134 142.716 25.4554 141.536 24.6293 140.333C23.8831 139.247 24.1401 137.78 25.1733 136.985L32.1215 131.638C32.7341 131.167 32.8917 130.298 32.4858 129.621C30.8134 126.831 29.3345 123.93 28.061 120.937C27.7517 120.211 26.9568 119.828 26.2153 120.046L17.8051 122.524C16.5543 122.892 15.2169 122.238 14.7768 120.996C14.2898 119.621 13.8392 118.233 13.4252 116.834C13.0513 115.571 13.7479 114.255 14.976 113.818L23.2377 110.879C23.9659 110.62 24.3843 109.843 24.2075 109.074C23.4788 105.904 22.9695 102.687 22.683 99.4477C22.6133 98.6617 21.9752 98.0522 21.2026 98.0307L12.4369 97.7875C11.1336 97.7514 10.0634 96.7156 10.0287 95.3979C9.99042 93.9402 9.99042 92.4815 10.0287 91.0239C10.0636 89.7063 11.1337 88.6703 12.4369 88.6342L21.2026 88.3911C21.9753 88.3696 22.6134 87.7601 22.683 86.9741C22.9695 83.7344 23.4788 80.5177 24.2075 77.3481C24.3841 76.579 23.9659 75.8017 23.2377 75.5424L14.976 72.6039C13.7478 72.1668 13.0511 70.8512 13.4252 69.5873C13.8392 68.1888 14.2898 66.801 14.7768 65.4262C15.217 64.1838 16.5545 63.5295 17.8051 63.8979L26.2153 66.3754C26.9568 66.5939 27.7518 66.2109 28.061 65.4848C29.3345 62.4922 30.8134 59.5906 32.4858 56.8012C32.8915 56.1242 32.7341 55.2552 32.1215 54.7836L25.1733 49.4369C24.1402 48.6417 23.8831 47.1747 24.6293 46.0883C25.4554 44.8861 26.3135 43.7054 27.2016 42.5483C28.0042 41.5029 29.4786 41.2939 30.5541 42.0307L37.7875 46.9858C38.4254 47.4228 39.3003 47.3047 39.8188 46.7094C41.9546 44.2571 44.2571 41.9546 46.7094 39.8188C47.3045 39.3003 47.4227 38.4253 46.9858 37.7875L42.0307 30.5541C41.294 29.4785 41.5027 28.0041 42.5483 27.2016C43.7054 26.3135 44.8861 25.4554 46.0883 24.6293C47.1747 23.8832 48.6418 24.1403 49.4369 25.1733L54.7836 32.1215C55.2552 32.7342 56.1242 32.8917 56.8012 32.4858C59.5906 30.8134 62.4922 29.3345 65.4848 28.061C66.2108 27.7517 66.5939 26.9568 66.3754 26.2153L63.8979 17.8051C63.5296 16.5544 64.1837 15.2169 65.4262 14.7768C66.8011 14.2898 68.1888 13.8393 69.5873 13.4252C70.8511 13.0512 72.1667 13.748 72.6039 14.976L75.5424 23.2377C75.8017 23.966 76.5789 24.3843 77.3481 24.2075C80.5178 23.4788 83.7343 22.9695 86.9741 22.683C87.7601 22.6133 88.3696 21.9753 88.391 21.2026L88.6342 12.4369C88.6705 11.1338 89.7063 10.0634 91.0239 10.0287ZM93.2114 39.061C63.3052 39.061 39.0611 63.3053 39.061 93.2114C39.0612 123.117 63.3053 147.361 93.2114 147.361C123.117 147.361 147.361 123.117 147.361 93.2114C147.361 63.3054 123.117 39.0612 93.2114 39.061Z" fill="url(#paint5_linear_58_126)"/>
</g>
</g>
</g>
<defs>
<filter id="filter0_d_58_126" x="31.2739" y="32.4128" width="121.592" height="121.503" filterUnits="userSpaceOnUse" color-interpolation-filters="sRGB">
<feFlood flood-opacity="0" result="BackgroundImageFix"/>
<feColorMatrix in="SourceAlpha" type="matrix" values="0 0 0 0 0 0 0 0 0 0 0 0 0 0 0 0 0 0 127 0" result="hardAlpha"/>
<feOffset/>
<feGaussianBlur stdDeviation="2.5"/>
<feComposite in2="hardAlpha" operator="out"/>
<feColorMatrix type="matrix" values="0 0 0 0 0 0 0 0 0 0 0 0 0 0 0 0 0 0 0.25 0"/>
<feBlend mode="normal" in2="BackgroundImageFix" result="effect1_dropShadow_58_126"/>
<feBlend mode="normal" in="SourceGraphic" in2="effect1_dropShadow_58_126" result="shape"/>
</filter>
<filter id="filter1_d_58_126" x="0" y="0" width="186.421" height="186.421" filterUnits="userSpaceOnUse" color-interpolation-filters="sRGB">
<feFlood flood-opacity="0" result="BackgroundImageFix"/>
<feColorMatrix in="SourceAlpha" type="matrix" values="0 0 0 0 0 0 0 0 0 0 0 0 0 0 0 0 0 0 127 0" result="hardAlpha"/>
<feOffset/>
<feGaussianBlur stdDeviation="5"/>
<feComposite in2="hardAlpha" operator="out"/>
<feColorMatrix type="matrix" values="0 0 0 0 0 0 0 0 0 0 0 0 0 0 0 0 0 0 0.25 0"/>
<feBlend mode="normal" in2="BackgroundImageFix" result="effect1_dropShadow_58_126"/>
<feBlend mode="normal" in="SourceGraphic" in2="effect1_dropShadow_58_126" result="shape"/>
</filter>
<filter id="filter2_d_58_126" x="32.2739" y="33.4131" width="119.592" height="119.503" filterUnits="userSpaceOnUse" color-interpolation-filters="sRGB">
<feFlood flood-opacity="0" result="BackgroundImageFix"/>
<feColorMatrix in="SourceAlpha" type="matrix" values="0 0 0 0 0 0 0 0 0 0 0 0 0 0 0 0 0 0 127 0" result="hardAlpha"/>
<feOffset/>
<feGaussianBlur stdDeviation="2"/>
<feComposite in2="hardAlpha" operator="out"/>
<feColorMatrix type="matrix" values="0 0 0 0 0 0 0 0 0 0 0 0 0 0 0 0 0 0 0.25 0"/>
<feBlend mode="normal" in2="BackgroundImageFix" result="effect1_dropShadow_58_126"/>
<feBlend mode="normal" in="SourceGraphic" in2="effect1_dropShadow_58_126" result="shape"/>
</filter>
<filter id="filter3_d_58_126" x="0" y="0" width="186.421" height="186.421" filterUnits="userSpaceOnUse" color-interpolation-filters="sRGB">
<feFlood flood-opacity="0" result="BackgroundImageFix"/>
<feColorMatrix in="SourceAlpha" type="matrix" values="0 0 0 0 0 0 0 0 0 0 0 0 0 0 0 0 0 0 127 0" result="hardAlpha"/>
<feOffset/>
<feGaussianBlur stdDeviation="5"/>
<feComposite in2="hardAlpha" operator="out"/>
<feColorMatrix type="matrix" values="0 0 0 0 0 0 0 0 0 0 0 0 0 0 0 0 0 0 0.25 0"/>
<feBlend mode="normal" in2="BackgroundImageFix" result="effect1_dropShadow_58_126"/>
<feBlend mode="normal" in="SourceGraphic" in2="effect1_dropShadow_58_126" result="shape"/>
</filter>
<linearGradient id="paint0_linear_58_126" x1="121.486" y1="64.1399" x2="66.4865" y2="119.641" gradientUnits="userSpaceOnUse">
<stop stop-color="#7D7C7C"/>
<stop offset="1" stop-color="#484848"/>
</linearGradient>
<linearGradient id="paint1_linear_58_126" x1="137.486" y1="37.1399" x2="43.0631" y2="149.205" gradientUnits="userSpaceOnUse">
<stop stop-color="#939292"/>
<stop offset="1" stop-color="#3A3A3A"/>
</linearGradient>
<linearGradient id="paint2_linear_58_126" x1="153.986" y1="38.1399" x2="31.9872" y2="159.641" gradientUnits="userSpaceOnUse">
<stop stop-color="#9A9A9A"/>
<stop offset="1" stop-color="#3A3A3A"/>
</linearGradient>
<linearGradient id="paint3_linear_58_126" x1="51.4858" y1="155.64" x2="157.986" y2="44.1399" gradientUnits="userSpaceOnUse">
<stop stop-color="#0E0E0E"/>
<stop offset="1" stop-color="#1D1D1D"/>
</linearGradient>
<linearGradient id="paint4_linear_58_126" x1="150.986" y1="45.1399" x2="36.4858" y2="146.14" gradientUnits="userSpaceOnUse">
<stop stop-color="#2B2B2B"/>
<stop offset="1" stop-color="#161616"/>
</linearGradient>
<linearGradient id="paint5_linear_58_126" x1="150.173" y1="36.8064" x2="33.4559" y2="154.641" gradientUnits="userSpaceOnUse">
<stop stop-color="#414141"/>
<stop offset="1" stop-color="#1B1B1B"/>
</linearGradient>
</defs>
</svg>
