<svg width="500" height="500" viewBox="0 0 500 500" fill="none" xmlns="http://www.w3.org/2000/svg">
<g id="anu-sign" clip-path="url(#clip0_101_2)">
<rect width="500" height="500" fill="white"/>
<path id="anu-sign_2" opacity="0.83" d="M180.081 365.972C170.548 366.527 213.522 282.466 216.659 276.001M216.659 276.001C217.946 273.347 219.249 270.637 220.565 267.872M216.659 276.001C207.421 276.375 198.661 276.732 190.563 277.069M216.659 276.001C236.891 275.183 259.416 274.288 282.296 273.361M220.565 267.872C210.334 270.979 200.218 274.069 190.563 277.069M220.565 267.872C243.358 260.952 266.719 253.951 286.811 247.696M220.565 267.872C252.978 199.744 285.289 125.869 302.935 52.3562C318.186 -11.1738 297.651 183.267 286.811 247.696M286.811 247.696C285.437 255.861 283.931 264.387 282.296 273.361M286.811 247.696C322.948 236.445 361.045 225.75 392.617 204.308M282.296 273.361C306.458 272.382 331.015 271.368 353.686 270.375M282.296 273.361C275.148 312.591 266.851 351.611 258.183 390.53M258.183 390.53C300.533 361.913 328.086 313.321 353.686 270.375M258.183 390.53C216.312 578.537 -42.0249 374.007 67.9575 321.02M258.183 390.53C203.91 427.205 55.3246 403.088 67.9575 321.02M67.9575 321.02C106.921 302.248 149.305 289.887 190.563 277.069M67.9575 321.02C75.8727 269.6 157.354 278.449 190.563 277.069M392.617 204.308C380.347 225.17 366.138 249.486 353.686 270.375M392.617 204.308C475.47 148.108 461.867 86.5614 392.617 204.308ZM353.686 270.375C413.543 267.751 389.801 267.998 449.602 265.483" stroke="black" stroke-width="12" stroke-linecap="round" stroke-linejoin="round"/>
</g>
<defs>
<clipPath id="clip0_101_2">
<rect width="500" height="500" fill="white"/>
</clipPath>
</defs>
</svg>
