<svg width="51" height="39" viewBox="0 0 51 39" fill="none" xmlns="http://www.w3.org/2000/svg">
<path d="M35.42 38.5L31.878 33.11C37.2167 29.414 40.3993 24.7427 41.426 19.096C40.502 19.5067 39.424 19.712 38.192 19.712C35.3173 19.712 32.956 18.788 31.108 16.94C29.26 15.092 28.336 12.7307 28.336 9.856C28.336 6.87867 29.3113 4.51733 31.262 2.772C33.2127 0.923999 35.6767 0 38.654 0C42.2473 0 45.1733 1.18067 47.432 3.542C49.7933 5.90333 50.974 9.29133 50.974 13.706C50.974 18.4287 49.588 23.1 46.816 27.72C44.1467 32.2373 40.348 35.8307 35.42 38.5ZM7.084 38.5L3.542 33.11C8.88067 29.414 12.0633 24.7427 13.09 19.096C12.166 19.5067 11.088 19.712 9.856 19.712C6.98133 19.712 4.62 18.788 2.772 16.94C0.923996 15.092 0 12.7307 0 9.856C0 6.87867 0.975328 4.51733 2.92599 2.772C4.87666 0.923999 7.34067 0 10.318 0C13.9113 0 16.8373 1.18067 19.096 3.542C21.4573 5.90333 22.638 9.29133 22.638 13.706C22.638 18.4287 21.252 23.1 18.48 27.72C15.8107 32.2373 12.012 35.8307 7.084 38.5Z" fill="currentColor"/>
</svg>
