<svg width="51" height="39" viewBox="0 0 51 39" fill="none" xmlns="http://www.w3.org/2000/svg">
<path d="M40.656 38.5C37.0627 38.5 34.0853 37.3193 31.724 34.958C29.4653 32.5967 28.336 29.2087 28.336 24.794C28.336 20.0713 29.6707 15.4 32.34 10.78C35.112 6.16 38.962 2.56667 43.89 0L47.432 5.39C42.0933 9.086 38.9107 13.7573 37.884 19.404C38.808 18.9933 39.886 18.788 41.118 18.788C43.9927 18.788 46.354 19.712 48.202 21.56C50.05 23.408 50.974 25.7693 50.974 28.644C50.974 31.5187 49.9987 33.88 48.048 35.728C46.0973 37.576 43.6333 38.5 40.656 38.5ZM12.32 38.5C8.72667 38.5 5.74933 37.3193 3.388 34.958C1.12933 32.5967 0 29.2087 0 24.794C0 20.0713 1.33467 15.4 4.004 10.78C6.776 6.16 10.626 2.56667 15.554 0L19.096 5.39C13.7573 9.086 10.5747 13.7573 9.548 19.404C10.472 18.9933 11.55 18.788 12.782 18.788C15.6567 18.788 18.018 19.712 19.866 21.56C21.714 23.408 22.638 25.7693 22.638 28.644C22.638 31.5187 21.6627 33.88 19.712 35.728C17.7613 37.576 15.2973 38.5 12.32 38.5Z" fill="currentColor"/>
</svg>
